<?xml version="1.0" encoding="utf-8"?>
<!-- Generator: Adobe Illustrator 26.0.0, SVG Export Plug-In . SVG Version: 6.00 Build 0)  -->
<svg version="1.1" xmlns="http://www.w3.org/2000/svg" xmlns:xlink="http://www.w3.org/1999/xlink" x="0px" y="0px"
	 viewBox="0 0 363.16 363.16" style="enable-background:new 0 0 363.16 363.16;" xml:space="preserve">
<style type="text/css">
	.st0{opacity:0.3;fill:url(#SVGID_1_);}
	.st1{fill:#D13737;}
	.st2{fill:#B3B3B3;}
	.st3{fill:#003159;}
	.st4{fill:#F7F7F7;}
</style>
<g id="BACKGROUND">
</g>
<g id="OBJECTS">
	
		<radialGradient id="SVGID_1_" cx="176.8461" cy="291.5127" r="88.327" gradientTransform="matrix(1 0 0 0.0897 0 226.0677)" gradientUnits="userSpaceOnUse">
		<stop  offset="5.800000e-07" style="stop-color:#606060"/>
		<stop  offset="0.9997" style="stop-color:#EAEDEE;stop-opacity:0"/>
	</radialGradient>
	<ellipse class="st0" cx="176.85" cy="252.21" rx="124.76" ry="10.99"/>
	<g>
		<g>
			<path class="st1" d="M258.65,177.51h-6.44l9.56-103.96c0.39-4.24,3.52-7.72,7.69-8.56l13.09-2.63L258.65,177.51z"/>
			<path class="st2" d="M242.04,69.68l6.87,107.83l6.59-105.25C249.83,72.18,245.29,70.97,242.04,69.68z"/>
			<path class="st2" d="M259.09,72.1l-8.88,105.42h4.19l18.27-111.1C269.83,68.65,265.22,71.39,259.09,72.1z"/>
			
				<ellipse transform="matrix(0.9732 -0.2298 0.2298 0.9732 -45.9459 38.3045)" class="st3" cx="141.52" cy="216.46" rx="16.19" ry="16.19"/>
			<circle class="st3" cx="213.57" cy="216.46" r="16.19"/>
			<path class="st3" d="M267.38,182.16H122.32c-14.66,0-27.07-10.97-28.87-25.52L79.86,46.68C77.16,24.29,58.12,7.4,35.56,7.4
				c-4.3,0-7.78,3.48-7.78,7.78s3.48,7.78,7.78,7.78c14.69,0,27.09,11,28.85,25.6L78,158.55c2.76,22.33,21.81,39.17,44.31,39.17
				h5.29c3.89-2.9,8.7-4.64,13.92-4.64c5.22,0,10.02,1.74,13.92,4.64h44.22c3.89-2.9,8.7-4.64,13.92-4.64
				c5.22,0,10.02,1.74,13.92,4.64h39.9c4.3,0,7.78-3.48,7.78-7.78C275.16,185.65,271.68,182.16,267.38,182.16z"/>
		</g>
		<path class="st1" d="M237.82,80.39c-1.17-10.26-9.86-18.01-20.18-18.01H86.68l10.45,91.6c1.53,13.41,12.88,23.54,26.38,23.54
			l-19.26-15.14l64.3-41.35l-23.82,47.81c-1.99,3.99,0.91,8.67,5.37,8.67h98.8L237.82,80.39z"/>
		<path class="st4" d="M155.2,107.52c-1.55,2.66-4.96,3.57-7.62,2.02c-2.66-1.55-3.56-4.96-2.02-7.62c1.08-1.86,3.07-2.84,5.09-2.74
			c-1.35,0.13-2.63,0.88-3.36,2.15c-1.21,2.09-0.5,4.77,1.59,5.98c2.09,1.21,4.77,0.5,5.98-1.59c0.74-1.27,0.76-2.76,0.19-4.01
			C156.14,103.42,156.29,105.65,155.2,107.52z"/>
		<g>
			<path class="st3" d="M196.26,60.64l4.13-0.28c-3.35-5.52-9.81-11.56-18.91-8.77c-6.3,1.93-13.65,11.47-21.84,28.34
				c-5.97,12.31-10.28,24.25-10.32,24.37c-0.34,0.93,0.15,1.96,1.08,2.3c0.2,0.07,0.41,0.11,0.61,0.11c0.74,0,1.43-0.46,1.69-1.19
				c4.65-12.93,19.06-47.2,29.83-50.5C189.13,53,193.66,57.01,196.26,60.64z"/>
		</g>
		<path class="st3" d="M169.03,113.35l-8.58-20.01c-0.87-2.03-2.96-3.25-5.16-3l-21.64,2.46c-2.69,0.31-5.08,1.87-6.44,4.21
			l-6.41,11.03l-23.39,40.26c-2.38,4.09-0.99,9.33,3.1,11.71l26.53,15.42c4.09,2.38,9.33,0.99,11.71-3.1l29.8-51.29
			C169.92,118.69,170.09,115.84,169.03,113.35z M155.2,107.52c-1.55,2.66-4.96,3.57-7.62,2.02c-2.66-1.55-3.56-4.96-2.02-7.62
			c1.55-2.66,4.96-3.57,7.62-2.02C155.85,101.45,156.75,104.86,155.2,107.52z"/>
	</g>
</g>
<g id="TEXTS">
	<g>
		<path class="st3" d="M81.29,301.82c0,5.57-4.6,8.83-13.25,8.83H50.65v-32.2h16.47c8.46,0,12.61,3.45,12.61,8.42
			c0,3.08-1.56,5.57-4.32,6.99C79.03,295.15,81.29,297.91,81.29,301.82z M59.66,285.03v6.21h6.26c3.04,0,4.6-1.06,4.6-3.13
			c0-2.02-1.56-3.08-4.6-3.08H59.66z M72.09,300.81c0-2.21-1.66-3.27-4.78-3.27h-7.64v6.53h7.64
			C70.43,304.07,72.09,303.02,72.09,300.81z"/>
		<path class="st3" d="M84.13,298.14c0-7.5,5.93-12.83,14.08-12.83c8.23,0,14.08,5.34,14.08,12.83c0,7.54-5.84,12.93-14.08,12.93
			C90.07,311.07,84.13,305.69,84.13,298.14z M103.46,298.14c0-3.77-2.25-5.89-5.24-5.89c-2.94,0-5.24,2.12-5.24,5.89
			c0,3.82,2.3,5.98,5.24,5.98C101.2,304.12,103.46,301.96,103.46,298.14z"/>
		<path class="st3" d="M114.86,298.14c0-7.5,5.93-12.83,14.08-12.83c8.23,0,14.08,5.34,14.08,12.83c0,7.54-5.84,12.93-14.08,12.93
			C120.8,311.07,114.86,305.69,114.86,298.14z M134.18,298.14c0-3.77-2.25-5.89-5.24-5.89c-2.94,0-5.24,2.12-5.24,5.89
			c0,3.82,2.3,5.98,5.24,5.98C131.93,304.12,134.18,301.96,134.18,298.14z"/>
		<path class="st3" d="M158.47,301.91l-2.58,2.62v6.12h-8.74v-34.14h8.74v17.9l8.92-8.69h10.35l-10.35,10.67l11.23,14.26h-10.58
			L158.47,301.91z"/>
		<path class="st1" d="M176.96,307.76l2.99-6.72c2.85,1.89,6.9,3.17,10.63,3.17c3.77,0,5.25-1.06,5.25-2.62
			c0-5.11-18.31-1.38-18.31-13.34c0-5.75,4.69-10.44,14.26-10.44c4.19,0,8.51,0.97,11.69,2.81l-2.81,6.76
			c-3.08-1.66-6.12-2.48-8.92-2.48c-3.82,0-5.2,1.29-5.2,2.9c0,4.92,18.26,1.24,18.26,13.11c0,5.61-4.69,10.4-14.26,10.4
			C185.24,311.3,180,309.87,176.96,307.76z"/>
		<path class="st1" d="M225.86,309.64c-1.52,0.97-3.77,1.43-6.07,1.43c-6.39,0-10.12-3.13-10.12-9.52v-8.37h-3.63v-6.53h3.63v-6.49
			h8.74v6.49h5.7v6.53h-5.7v8.28c0,1.84,1.06,2.85,2.62,2.85c0.97,0,1.93-0.28,2.67-0.78L225.86,309.64z"/>
		<path class="st1" d="M227.01,298.14c0-7.5,5.93-12.83,14.08-12.83c8.24,0,14.08,5.34,14.08,12.83c0,7.54-5.84,12.93-14.08,12.93
			C232.94,311.07,227.01,305.69,227.01,298.14z M246.33,298.14c0-3.77-2.25-5.89-5.25-5.89c-2.94,0-5.24,2.12-5.24,5.89
			c0,3.82,2.3,5.98,5.24,5.98C244.08,304.12,246.33,301.96,246.33,298.14z"/>
		<path class="st1" d="M276,285.31v7.87c-0.78-0.09-1.33-0.14-1.98-0.14c-3.54,0-5.98,1.79-5.98,6.17v11.46h-8.74v-24.93h8.33v2.99
			C269.42,286.45,272.32,285.31,276,285.31z"/>
		<path class="st1" d="M304.8,300.39h-18.13c0.74,2.53,2.9,4,6.12,4c2.44,0,4.05-0.69,5.75-2.16l4.6,4.78
			c-2.39,2.67-5.89,4.05-10.63,4.05c-8.88,0-14.63-5.47-14.63-12.93c0-7.5,5.84-12.83,13.71-12.83c7.36,0,13.34,4.69,13.34,12.93
			C304.93,298.88,304.84,299.7,304.8,300.39z M286.53,295.79h10.21c-0.46-2.62-2.39-4.28-5.11-4.28
			C288.92,291.52,287.04,293.17,286.53,295.79z"/>
	</g>
	<g>
		<path class="st1" d="M81.97,327.71l-1.16,5.48h-2.98l3.02-14.28h3.51c1.54,0,2.7,0.33,3.48,1s1.16,1.64,1.16,2.92
			c0,1.03-0.27,1.91-0.81,2.65s-1.32,1.29-2.33,1.65l2.55,6.06h-3.24l-2.02-5.48H81.97z M82.49,325.25h0.76
			c0.85,0,1.52-0.19,1.99-0.56s0.71-0.94,0.71-1.7c0-0.53-0.15-0.93-0.46-1.2s-0.8-0.4-1.46-0.4h-0.72L82.49,325.25z"/>
		<path class="st1" d="M93.87,333.39c-1.37,0-2.43-0.37-3.18-1.1s-1.13-1.77-1.13-3.12c0-1.35,0.27-2.58,0.81-3.69
			s1.26-1.96,2.18-2.54s1.96-0.87,3.12-0.87c1.15,0,2.05,0.27,2.7,0.8s0.97,1.26,0.97,2.18c0,1.22-0.54,2.16-1.63,2.82
			s-2.64,0.99-4.66,0.99h-0.5l-0.02,0.21v0.2c0,0.59,0.17,1.06,0.5,1.4s0.82,0.51,1.44,0.51c0.57,0,1.08-0.06,1.54-0.19
			s1.02-0.34,1.68-0.65v2.22C96.55,333.11,95.28,333.39,93.87,333.39z M95.47,324.19c-0.57,0-1.11,0.26-1.62,0.78s-0.84,1.16-1,1.9
			h0.44c1.01,0,1.8-0.16,2.36-0.47s0.84-0.74,0.84-1.28C96.49,324.5,96.15,324.19,95.47,324.19z"/>
		<path class="st1" d="M98.55,338c-0.68,0-1.24-0.08-1.7-0.24v-2.36c0.4,0.14,0.77,0.21,1.12,0.21c0.4,0,0.75-0.13,1.04-0.39
			s0.51-0.68,0.63-1.27l1.99-9.42h-1.59l0.29-1.42l1.79-0.82l0.18-0.82c0.27-1.24,0.72-2.14,1.35-2.71s1.52-0.85,2.67-0.85
			c0.85,0,1.62,0.16,2.29,0.48l-0.78,2.19c-0.45-0.2-0.88-0.3-1.3-0.3c-0.37,0-0.67,0.13-0.9,0.39s-0.38,0.6-0.46,1.03l-0.12,0.61
			h2.14l-0.48,2.24h-2.15l-2.1,9.86C101.99,336.79,100.68,338,98.55,338z"/>
		<path class="st1" d="M113.86,322.07c0.38,0,0.7,0.04,0.94,0.11l-0.64,2.83c-0.29-0.1-0.62-0.16-0.98-0.16
			c-0.76,0-1.42,0.3-1.99,0.89s-0.98,1.45-1.22,2.56l-1.04,4.88h-2.94l2.31-10.92h2.25l-0.21,2.02h0.06
			C111.37,322.81,112.51,322.07,113.86,322.07z"/>
		<path class="st1" d="M118.43,333.39c-1.37,0-2.43-0.37-3.18-1.1s-1.13-1.77-1.13-3.12c0-1.35,0.27-2.58,0.81-3.69
			s1.26-1.96,2.18-2.54s1.96-0.87,3.12-0.87c1.15,0,2.05,0.27,2.7,0.8s0.97,1.26,0.97,2.18c0,1.22-0.54,2.16-1.63,2.82
			s-2.64,0.99-4.66,0.99h-0.5l-0.02,0.21v0.2c0,0.59,0.17,1.06,0.5,1.4s0.82,0.51,1.44,0.51c0.57,0,1.08-0.06,1.54-0.19
			s1.02-0.34,1.68-0.65v2.22C121.12,333.11,119.85,333.39,118.43,333.39z M120.03,324.19c-0.57,0-1.11,0.26-1.62,0.78
			s-0.84,1.16-1,1.9h0.44c1.01,0,1.8-0.16,2.36-0.47s0.84-0.74,0.84-1.28C121.05,324.5,120.71,324.19,120.03,324.19z"/>
		<path class="st1" d="M131.65,329.59c0,1.22-0.41,2.16-1.22,2.82s-1.94,0.98-3.38,0.98c-0.7,0-1.3-0.05-1.82-0.15
			s-1-0.26-1.45-0.49v-2.42c1.02,0.59,2.06,0.88,3.12,0.88c0.52,0,0.95-0.11,1.28-0.32c0.33-0.21,0.5-0.5,0.5-0.86
			c0-0.28-0.12-0.53-0.36-0.75s-0.67-0.5-1.28-0.84c-0.79-0.44-1.34-0.88-1.65-1.32s-0.47-0.96-0.47-1.56
			c0-1.11,0.36-1.96,1.08-2.57s1.75-0.91,3.08-0.91c1.31,0,2.49,0.31,3.54,0.93l-0.97,2.1c-0.91-0.55-1.75-0.82-2.52-0.82
			c-0.37,0-0.67,0.08-0.9,0.25s-0.34,0.39-0.34,0.67c0,0.25,0.1,0.48,0.31,0.67c0.21,0.19,0.6,0.43,1.17,0.73
			c0.8,0.41,1.38,0.86,1.74,1.34S131.65,328.96,131.65,329.59z"/>
		<path class="st1" d="M141.74,333.19h-2.94l1.34-6.38c0.1-0.44,0.16-0.83,0.16-1.16c0-0.8-0.35-1.2-1.05-1.2
			c-0.6,0-1.14,0.37-1.63,1.11s-0.87,1.78-1.15,3.11l-0.96,4.52h-2.94l3.22-15.2h2.94c-0.25,1.18-0.45,2.08-0.59,2.71
			s-0.42,1.64-0.84,3.02h0.08c0.4-0.5,0.85-0.9,1.35-1.21s1.07-0.45,1.72-0.45c0.9,0,1.59,0.27,2.08,0.82s0.74,1.32,0.74,2.33
			c0,0.48-0.07,1.06-0.22,1.76L141.74,333.19z"/>
		<path class="st1" d="M148.83,322.27h2.88l0.55,5.06c0.09,0.79,0.14,1.75,0.14,2.86h0.06c0.13-0.33,0.27-0.72,0.43-1.17
			s0.37-0.95,0.63-1.5l2.54-5.25h3.19l-6.64,12.48c-1.15,2.16-2.72,3.24-4.72,3.24c-0.59,0-1.06-0.06-1.44-0.19v-2.34
			c0.44,0.08,0.82,0.13,1.13,0.13c0.55,0,1.03-0.16,1.44-0.47s0.8-0.8,1.15-1.46l0.25-0.48L148.83,322.27z"/>
		<path class="st1" d="M168.21,326.39c0,1.37-0.23,2.59-0.69,3.65s-1.12,1.88-1.99,2.47s-1.89,0.87-3.09,0.87
			c-1.27,0-2.28-0.38-3.04-1.15s-1.14-1.78-1.14-3.05c0-1.39,0.23-2.62,0.7-3.71s1.14-1.92,2.02-2.52s1.91-0.89,3.09-0.89
			c1.28,0,2.29,0.38,3.03,1.15S168.21,325.05,168.21,326.39z M165.25,326.39c0-1.28-0.47-1.92-1.4-1.92c-0.49,0-0.93,0.2-1.31,0.6
			s-0.7,0.98-0.95,1.75s-0.37,1.56-0.37,2.37c0,1.2,0.49,1.81,1.46,1.81c0.49,0,0.93-0.2,1.32-0.6s0.69-0.96,0.91-1.67
			S165.25,327.23,165.25,326.39z"/>
		<path class="st1" d="M170.83,322.27h2.94l-1.34,6.38c-0.1,0.44-0.16,0.83-0.16,1.16c0,0.8,0.35,1.2,1.05,1.2
			c0.6,0,1.14-0.37,1.63-1.11s0.87-1.78,1.15-3.11l0.96-4.52h2.94l-2.31,10.92h-2.25l0.21-2.02h-0.06c-0.94,1.48-2.1,2.22-3.47,2.22
			c-0.9,0-1.59-0.27-2.06-0.81s-0.71-1.31-0.71-2.33c0-0.61,0.08-1.3,0.23-2.08L170.83,322.27z"/>
		<path class="st1" d="M187.75,322.07c0.38,0,0.7,0.04,0.94,0.11l-0.64,2.83c-0.29-0.1-0.62-0.16-0.98-0.16
			c-0.75,0-1.42,0.3-1.99,0.89s-0.97,1.45-1.22,2.56l-1.04,4.88h-2.94l2.31-10.92h2.25l-0.21,2.02h0.06
			C185.26,322.81,186.41,322.07,187.75,322.07z"/>
		<path class="st1" d="M199.86,324.79c-0.4,1.16-0.8,2.2-1.2,3.12l-2.28,5.28h-3.16l-0.5-10.92h2.74l0.04,4.83l-0.04,1.63
			l-0.07,1.67h0.04c0.04-0.13,0.08-0.27,0.14-0.41s0.22-0.58,0.5-1.33s0.43-1.14,0.45-1.16l2.26-5.23h3.2v5.23
			c0,0.92-0.03,1.89-0.1,2.9h0.06l0.27-0.78c0.48-1.35,0.78-2.19,0.93-2.52l2.14-4.83h3l-5.18,10.92h-3.22l-0.06-5.08
			c0-1.01,0.03-2.12,0.1-3.32H199.86z"/>
		<path class="st1" d="M210.41,333.39c-0.96,0-1.71-0.35-2.26-1.04s-0.83-1.67-0.83-2.92c0-1.29,0.23-2.52,0.7-3.69
			s1.08-2.07,1.85-2.71s1.6-0.96,2.51-0.96c0.63,0,1.18,0.14,1.64,0.41s0.82,0.67,1.07,1.19h0.08l0.56-1.4h2.27l-2.32,10.92h-2.24
			l0.14-1.42h-0.04C212.65,332.85,211.62,333.39,210.41,333.39z M211.56,331.01c0.45,0,0.88-0.22,1.3-0.65s0.75-1.03,1.01-1.77
			s0.38-1.59,0.38-2.53c0-0.46-0.12-0.84-0.38-1.15s-0.58-0.45-0.99-0.45c-0.44,0-0.86,0.23-1.26,0.7s-0.72,1.09-0.96,1.86
			s-0.36,1.53-0.36,2.29c0,0.57,0.11,1,0.33,1.29S211.16,331.01,211.56,331.01z"/>
		<path class="st1" d="M225.73,322.07c0.38,0,0.7,0.04,0.94,0.11l-0.64,2.83c-0.29-0.1-0.62-0.16-0.98-0.16
			c-0.75,0-1.42,0.3-1.99,0.89s-0.97,1.45-1.22,2.56l-1.04,4.88h-2.94l2.31-10.92h2.25l-0.21,2.02h0.06
			C223.24,322.81,224.39,322.07,225.73,322.07z"/>
		<path class="st1" d="M229.07,333.39c-0.96,0-1.71-0.35-2.26-1.04s-0.83-1.67-0.83-2.93c0-1.28,0.23-2.5,0.7-3.66
			s1.08-2.07,1.84-2.71s1.6-0.97,2.52-0.97c0.53,0,0.99,0.12,1.38,0.36s0.75,0.65,1.1,1.24h0.08l0.02-0.27
			c0.04-0.72,0.12-1.35,0.24-1.9l0.74-3.5h2.94l-3.22,15.2h-2.24l0.14-1.42h-0.04c-0.46,0.57-0.95,0.98-1.45,1.23
			S229.68,333.39,229.07,333.39z M230.31,331.01c0.43,0,0.85-0.22,1.25-0.67s0.73-1.04,0.98-1.78s0.37-1.54,0.37-2.39
			c0-0.52-0.12-0.94-0.37-1.25s-0.58-0.47-1-0.47c-0.44,0-0.86,0.23-1.26,0.7s-0.72,1.09-0.96,1.86s-0.36,1.53-0.36,2.29
			C228.97,330.44,229.41,331.01,230.31,331.01z"/>
		<path class="st1" d="M244.4,322.07c0.38,0,0.7,0.04,0.94,0.11l-0.64,2.83c-0.29-0.1-0.62-0.16-0.98-0.16
			c-0.75,0-1.42,0.3-1.99,0.89s-0.97,1.45-1.22,2.56l-1.04,4.88h-2.94l2.31-10.92h2.25l-0.21,2.02h0.06
			C241.91,322.81,243.06,322.07,244.4,322.07z"/>
		<path class="st1" d="M254.59,326.39c0,1.37-0.23,2.59-0.69,3.65s-1.12,1.88-1.99,2.47s-1.89,0.87-3.09,0.87
			c-1.27,0-2.28-0.38-3.04-1.15s-1.14-1.78-1.14-3.05c0-1.39,0.23-2.62,0.7-3.71s1.14-1.92,2.02-2.52s1.91-0.89,3.09-0.89
			c1.28,0,2.29,0.38,3.03,1.15S254.59,325.05,254.59,326.39z M251.63,326.39c0-1.28-0.47-1.92-1.4-1.92c-0.49,0-0.93,0.2-1.31,0.6
			s-0.7,0.98-0.95,1.75s-0.37,1.56-0.37,2.37c0,1.2,0.49,1.81,1.46,1.81c0.49,0,0.93-0.2,1.32-0.6s0.7-0.96,0.91-1.67
			S251.63,327.23,251.63,326.39z"/>
		<path class="st1" d="M262.59,322.07c0.95,0,1.7,0.35,2.25,1.05s0.83,1.67,0.83,2.91s-0.22,2.43-0.66,3.59s-1.05,2.07-1.83,2.75
			s-1.63,1.02-2.57,1.02c-1.26,0-2.16-0.53-2.7-1.59h-0.08l-0.57,1.4h-2.26l3.22-15.2h2.94l-0.61,2.81
			c-0.27,1.18-0.54,2.16-0.82,2.92h0.08c0.51-0.64,0.97-1.07,1.39-1.31S262.1,322.07,262.59,322.07z M261.41,324.45
			c-0.44,0-0.87,0.21-1.27,0.63s-0.74,1.01-1,1.76s-0.39,1.57-0.39,2.45c0,0.52,0.12,0.94,0.36,1.25s0.57,0.47,1,0.47
			c0.44,0,0.85-0.22,1.25-0.67s0.72-1.07,0.96-1.85s0.37-1.56,0.37-2.32C262.69,325.02,262.26,324.45,261.41,324.45z"/>
		<path class="st1" d="M270.93,333.39c-1.37,0-2.43-0.37-3.18-1.1s-1.13-1.77-1.13-3.12c0-1.35,0.27-2.58,0.81-3.69
			s1.26-1.96,2.18-2.54s1.96-0.87,3.12-0.87c1.15,0,2.05,0.27,2.7,0.8s0.97,1.26,0.97,2.18c0,1.22-0.54,2.16-1.63,2.82
			s-2.64,0.99-4.66,0.99h-0.5l-0.02,0.21v0.2c0,0.59,0.17,1.06,0.5,1.4s0.82,0.51,1.44,0.51c0.57,0,1.08-0.06,1.54-0.19
			s1.02-0.34,1.68-0.65v2.22C273.62,333.11,272.35,333.39,270.93,333.39z M272.53,324.19c-0.57,0-1.11,0.26-1.62,0.78
			s-0.84,1.16-1,1.9h0.44c1.01,0,1.79-0.16,2.36-0.47s0.84-0.74,0.84-1.28C273.56,324.5,273.22,324.19,272.53,324.19z"/>
	</g>
</g>
</svg>
