<svg xmlns="http://www.w3.org/2000/svg" xmlns:xlink="http://www.w3.org/1999/xlink" viewBox="0 0 257.92 304.22"><defs><radialGradient id="Degradado_sin_nombre_24" cx="136.43" cy="290.9" r="88.33" gradientTransform="translate(-7.98 219.04) scale(1 0.09)" gradientUnits="userSpaceOnUse"><stop offset="0" stop-color="#606060"/><stop offset="1" stop-color="#eaedee" stop-opacity="0"/></radialGradient></defs><g style="isolation:isolate"><g id="OBJECTS"><ellipse cx="128.45" cy="245.14" rx="124.76" ry="10.99" style="mix-blend-mode:multiply;opacity:0.30000000000000004;fill:url(#Degradado_sin_nombre_24)"/><path d="M182.72,144.59c-1.68-29.45-2-44.36-2-51.84a7.62,7.62,0,0,0-7.27-7.65L55.59,79.91C44,114.78,42,168.63,41.81,198.06c68.75-15.91,116.39,4,116.39,4-47.7-8.28-97.13,4.59-115.87,16.89,3.07-.46,28.86-4.07,69.62-3.08,40.31,1,78.16,8.68,78.16,8.68S183.53,158.83,182.72,144.59ZM85.15,108.68a8.08,8.08,0,1,1,8.09-8.08A8.08,8.08,0,0,1,85.15,108.68Zm76,0a8.08,8.08,0,1,1,8.09-8.08A8.08,8.08,0,0,1,161.12,108.68Z" transform="translate(-7.98 -6.47)" style="fill:#6000c6"/><path d="M174.79,60C167.33,25.88,156,8.57,141.15,8.57A19.06,19.06,0,0,0,139,8.7,34.76,34.76,0,0,1,146.12,17c8.64,4.26,16.2,19.71,21.64,44.57a3.6,3.6,0,1,0,7-1.54Z" transform="translate(-7.98 -6.47)" style="fill:#003159"/><path d="M131.16,11.47c-10.5,6.42-19,23.48-25.42,51a3.6,3.6,0,0,0,2.69,4.32,3.88,3.88,0,0,0,.82.09,3.59,3.59,0,0,0,3.5-2.78c6.14-26.38,14.31-42.72,23.39-47.1Z" transform="translate(-7.98 -6.47)" style="fill:#003159"/><path d="M196.81,76l14.45,131.41q3.38-1.29,7-2.33Z" transform="translate(-7.98 -6.47)" style="fill:#b3b3b3"/><path d="M189.49,82.14s-.69,32.48,1.77,62c3.34,40,7.59,77.18,6.91,69.61,2.21-1.26,4.94-2.74,7.46-3.91,0,0-7.29-45.41-9.78-64.51C192.54,120,189.49,82.14,189.49,82.14Z" transform="translate(-7.98 -6.47)" style="fill:#b3b3b3"/><path d="M211.45,69.94s-1.89-7.95-9.11-10.61a9.73,9.73,0,0,0-3.17-.54L88.06,56.6A33.22,33.22,0,0,0,55.89,79l-.08.26,122.5,1.5A7.57,7.57,0,0,0,185,77c2.08-3.68,5.57-8.9,9.36-10.55l.2-.08a8.18,8.18,0,0,1,11.15,6.42L222.85,204a71.55,71.55,0,0,1,8.22-1.3Z" transform="translate(-7.98 -6.47)" style="fill:#6000c6"/><path d="M85.16,103.7h-.33a3.6,3.6,0,0,1-3.26-3.91,309.88,309.88,0,0,1,8-45.61c8.31-31.65,20-47.7,34.79-47.7S150.53,22.55,158,54.26a306.46,306.46,0,0,1,6.82,45.61,3.6,3.6,0,1,1-7.18.46A306.29,306.29,0,0,0,151,55.84C142.75,21,132,13.67,124.38,13.67S105.74,21,96.55,56a309.64,309.64,0,0,0-7.81,44.42A3.6,3.6,0,0,1,85.16,103.7Z" transform="translate(-7.98 -6.47)" style="fill:#003159"/></g><g id="TEXTS"><path d="M8,307.15l3-6.72a20.26,20.26,0,0,0,10.62,3.17c3.78,0,5.25-1.05,5.25-2.62,0-5.11-18.31-1.38-18.31-13.34,0-5.75,4.69-10.44,14.26-10.44A24.14,24.14,0,0,1,34.48,280l-2.81,6.77a19,19,0,0,0-8.92-2.49c-3.82,0-5.2,1.29-5.2,2.9,0,4.92,18.26,1.24,18.26,13.11,0,5.61-4.69,10.4-14.26,10.4C16.26,310.69,11,309.26,8,307.15Z" transform="translate(-7.98 -6.47)" style="fill:#6000c6"/><path d="M56.88,309a11.75,11.75,0,0,1-6.08,1.43c-6.39,0-10.12-3.13-10.12-9.52v-8.38H37.05V286h3.63v-6.49h8.74V286h5.71v6.53H49.42v8.28a2.54,2.54,0,0,0,2.63,2.86,4.79,4.79,0,0,0,2.67-.79Z" transform="translate(-7.98 -6.47)" style="fill:#6000c6"/><path d="M58,297.53C58,290,64,284.7,72.1,284.7S86.18,290,86.18,297.53s-5.84,12.93-14.08,12.93S58,305.08,58,297.53Zm19.32,0c0-3.77-2.26-5.89-5.25-5.89s-5.24,2.12-5.24,5.89,2.3,6,5.24,6S77.35,301.35,77.35,297.53Z" transform="translate(-7.98 -6.47)" style="fill:#6000c6"/><path d="M107,284.7v7.86a16.54,16.54,0,0,0-2-.14c-3.54,0-6,1.8-6,6.17V310H90.32V285.11h8.32v3C100.44,285.85,103.34,284.7,107,284.7Z" transform="translate(-7.98 -6.47)" style="fill:#6000c6"/><path d="M135.81,299.79H117.69c.73,2.53,2.9,4,6.12,4a8,8,0,0,0,5.75-2.16l4.6,4.78c-2.39,2.67-5.89,4-10.63,4-8.88,0-14.63-5.48-14.63-12.93s5.84-12.83,13.71-12.83c7.36,0,13.34,4.69,13.34,12.92C136,298.27,135.86,299.1,135.81,299.79Zm-18.26-4.6h10.21a5.18,5.18,0,0,0-10.21,0Z" transform="translate(-7.98 -6.47)" style="fill:#6000c6"/><path d="M171.14,301.21c0,5.57-4.6,8.83-13.25,8.83H140.5v-32.2H157c8.47,0,12.61,3.45,12.61,8.42a7.6,7.6,0,0,1-4.33,7C168.89,294.54,171.14,297.3,171.14,301.21Zm-21.62-16.79v6.21h6.26c3,0,4.6-1.06,4.6-3.13s-1.57-3.08-4.6-3.08Zm12.42,15.78c0-2.21-1.66-3.27-4.78-3.27h-7.64v6.54h7.64C160.28,303.47,161.94,302.41,161.94,300.2Z" transform="translate(-7.98 -6.47)" style="fill:#003159"/><path d="M174,297.53c0-7.5,5.93-12.83,14.08-12.83s14.07,5.33,14.07,12.83-5.84,12.93-14.07,12.93S174,305.08,174,297.53Zm19.32,0c0-3.77-2.25-5.89-5.24-5.89s-5.25,2.12-5.25,5.89,2.3,6,5.25,6S193.31,301.35,193.31,297.53Z" transform="translate(-7.98 -6.47)" style="fill:#003159"/><path d="M204.72,297.53c0-7.5,5.93-12.83,14.07-12.83s14.08,5.33,14.08,12.83-5.84,12.93-14.08,12.93S204.72,305.08,204.72,297.53Zm19.32,0c0-3.77-2.25-5.89-5.25-5.89s-5.24,2.12-5.24,5.89,2.3,6,5.24,6S224,301.35,224,297.53Z" transform="translate(-7.98 -6.47)" style="fill:#003159"/><path d="M248.33,301.3l-2.58,2.63V310H237V275.91h8.74V293.8l8.93-8.69H265l-10.35,10.67L265.9,310H255.32Z" transform="translate(-7.98 -6.47)" style="fill:#003159"/></g></g></svg>