<svg xmlns="http://www.w3.org/2000/svg" xmlns:xlink="http://www.w3.org/1999/xlink" viewBox="0 0 265.53 332.8"><defs><radialGradient id="Degradado_sin_nombre_24" cx="136.43" cy="290.9" r="88.33" gradientTransform="translate(-3.48 219.04) scale(1 0.09)" gradientUnits="userSpaceOnUse"><stop offset="0" stop-color="#606060"/><stop offset="1" stop-color="#eaedee" stop-opacity="0"/></radialGradient></defs><g style="isolation:isolate"><g id="OBJECTS"><ellipse cx="132.95" cy="245.14" rx="124.76" ry="10.99" style="mix-blend-mode:multiply;opacity:0.30000000000000004;fill:url(#Degradado_sin_nombre_24)"/><path d="M182.72,144.59c-1.68-29.45-2-44.36-2-51.84a7.62,7.62,0,0,0-7.27-7.65L55.59,79.91C44,114.78,42,168.63,41.81,198.06c68.75-15.91,116.39,4,116.39,4-47.7-8.28-97.13,4.59-115.87,16.89,3.07-.46,28.86-4.07,69.62-3.08,40.31,1,78.16,8.68,78.16,8.68S183.53,158.83,182.72,144.59ZM85.15,108.68a8.08,8.08,0,1,1,8.09-8.08A8.08,8.08,0,0,1,85.15,108.68Zm76,0a8.08,8.08,0,1,1,8.09-8.08A8.08,8.08,0,0,1,161.12,108.68Z" transform="translate(-3.48 -6.47)" style="fill:#6000c6"/><path d="M174.79,60C167.33,25.88,156,8.57,141.15,8.57A19.06,19.06,0,0,0,139,8.7,34.76,34.76,0,0,1,146.12,17c8.64,4.26,16.2,19.71,21.64,44.57a3.6,3.6,0,1,0,7-1.54Z" transform="translate(-3.48 -6.47)" style="fill:#003159"/><path d="M131.16,11.47c-10.5,6.42-19,23.48-25.42,51a3.6,3.6,0,0,0,2.69,4.32,3.88,3.88,0,0,0,.82.09,3.59,3.59,0,0,0,3.5-2.78c6.14-26.38,14.31-42.72,23.39-47.1Z" transform="translate(-3.48 -6.47)" style="fill:#003159"/><path d="M196.81,76l14.45,131.41q3.38-1.29,7-2.33Z" transform="translate(-3.48 -6.47)" style="fill:#b3b3b3"/><path d="M189.49,82.14s-.69,32.48,1.77,62c3.34,40,7.59,77.18,6.91,69.61,2.21-1.26,4.94-2.74,7.46-3.91,0,0-7.29-45.41-9.78-64.51C192.54,120,189.49,82.14,189.49,82.14Z" transform="translate(-3.48 -6.47)" style="fill:#b3b3b3"/><path d="M211.45,69.94s-1.89-7.95-9.11-10.61a9.73,9.73,0,0,0-3.17-.54L88.06,56.6A33.22,33.22,0,0,0,55.89,79l-.08.26,122.5,1.5A7.57,7.57,0,0,0,185,77c2.08-3.68,5.57-8.9,9.36-10.55l.2-.08a8.18,8.18,0,0,1,11.15,6.42L222.85,204a71.55,71.55,0,0,1,8.22-1.3Z" transform="translate(-3.48 -6.47)" style="fill:#6000c6"/><path d="M85.16,103.7h-.33a3.6,3.6,0,0,1-3.26-3.91,309.88,309.88,0,0,1,8-45.61c8.31-31.65,20-47.7,34.79-47.7S150.53,22.55,158,54.26a306.46,306.46,0,0,1,6.82,45.61,3.6,3.6,0,1,1-7.18.46A306.29,306.29,0,0,0,151,55.84C142.75,21,132,13.67,124.38,13.67S105.74,21,96.55,56a309.64,309.64,0,0,0-7.81,44.42A3.6,3.6,0,0,1,85.16,103.7Z" transform="translate(-3.48 -6.47)" style="fill:#003159"/></g><g id="TEXTS"><path d="M8,307.15l3-6.72a20.26,20.26,0,0,0,10.62,3.17c3.78,0,5.25-1.05,5.25-2.62,0-5.11-18.31-1.38-18.31-13.34,0-5.75,4.69-10.44,14.26-10.44A24.14,24.14,0,0,1,34.48,280l-2.81,6.77a19,19,0,0,0-8.92-2.49c-3.82,0-5.2,1.29-5.2,2.9,0,4.92,18.26,1.24,18.26,13.11,0,5.61-4.69,10.4-14.26,10.4C16.26,310.69,11,309.26,8,307.15Z" transform="translate(-3.48 -6.47)" style="fill:#6000c6"/><path d="M56.88,309a11.75,11.75,0,0,1-6.08,1.43c-6.39,0-10.12-3.13-10.12-9.52v-8.38H37.05V286h3.63v-6.49h8.74V286h5.71v6.53H49.42v8.28a2.54,2.54,0,0,0,2.63,2.86,4.79,4.79,0,0,0,2.67-.79Z" transform="translate(-3.48 -6.47)" style="fill:#6000c6"/><path d="M58,297.53C58,290,64,284.7,72.1,284.7S86.18,290,86.18,297.53s-5.84,12.93-14.08,12.93S58,305.08,58,297.53Zm19.32,0c0-3.77-2.26-5.89-5.25-5.89s-5.24,2.12-5.24,5.89,2.3,6,5.24,6S77.35,301.35,77.35,297.53Z" transform="translate(-3.48 -6.47)" style="fill:#6000c6"/><path d="M107,284.7v7.86a16.54,16.54,0,0,0-2-.14c-3.54,0-6,1.8-6,6.17V310H90.32V285.11h8.32v3C100.44,285.85,103.34,284.7,107,284.7Z" transform="translate(-3.48 -6.47)" style="fill:#6000c6"/><path d="M135.81,299.79H117.69c.73,2.53,2.9,4,6.12,4a8,8,0,0,0,5.75-2.16l4.6,4.78c-2.39,2.67-5.89,4-10.63,4-8.88,0-14.63-5.48-14.63-12.93s5.84-12.83,13.71-12.83c7.36,0,13.34,4.69,13.34,12.92C136,298.27,135.86,299.1,135.81,299.79Zm-18.26-4.6h10.21a5.18,5.18,0,0,0-10.21,0Z" transform="translate(-3.48 -6.47)" style="fill:#6000c6"/><path d="M171.14,301.21c0,5.57-4.6,8.83-13.25,8.83H140.5v-32.2H157c8.47,0,12.61,3.45,12.61,8.42a7.6,7.6,0,0,1-4.33,7C168.89,294.54,171.14,297.3,171.14,301.21Zm-21.62-16.79v6.21h6.26c3,0,4.6-1.06,4.6-3.13s-1.57-3.08-4.6-3.08Zm12.42,15.78c0-2.21-1.66-3.27-4.78-3.27h-7.64v6.54h7.64C160.28,303.47,161.94,302.41,161.94,300.2Z" transform="translate(-3.48 -6.47)" style="fill:#003159"/><path d="M174,297.53c0-7.5,5.93-12.83,14.08-12.83s14.07,5.33,14.07,12.83-5.84,12.93-14.07,12.93S174,305.08,174,297.53Zm19.32,0c0-3.77-2.25-5.89-5.24-5.89s-5.25,2.12-5.25,5.89,2.3,6,5.25,6S193.31,301.35,193.31,297.53Z" transform="translate(-3.48 -6.47)" style="fill:#003159"/><path d="M204.72,297.53c0-7.5,5.93-12.83,14.07-12.83s14.08,5.33,14.08,12.83-5.84,12.93-14.08,12.93S204.72,305.08,204.72,297.53Zm19.32,0c0-3.77-2.25-5.89-5.25-5.89s-5.24,2.12-5.24,5.89,2.3,6,5.24,6S224,301.35,224,297.53Z" transform="translate(-3.48 -6.47)" style="fill:#003159"/><path d="M248.33,301.3l-2.58,2.63V310H237V275.91h8.74V293.8l8.93-8.69H265l-10.35,10.67L265.9,310H255.32Z" transform="translate(-3.48 -6.47)" style="fill:#003159"/><path d="M11.46,334.47h-8l3-14.28h8L14,322.67H9l-.65,3.14H13l-.54,2.48H7.77L7,332h5Z" transform="translate(-3.48 -6.47)" style="fill:#5d6466"/><path d="M16.69,328.87l-2.2-5.32h3.13l1.13,3.26,2.38-3.26h3.46L20,329l2.38,5.44H19.23L18,331.13l-2.57,3.34H12Z" transform="translate(-3.48 -6.47)" style="fill:#5d6466"/><path d="M30.72,323.35a2.71,2.71,0,0,1,2.25,1,4.62,4.62,0,0,1,.83,2.93,10,10,0,0,1-.67,3.59,7,7,0,0,1-1.83,2.74,3.85,3.85,0,0,1-2.56,1,2.54,2.54,0,0,1-1.4-.37,3.33,3.33,0,0,1-1.08-1.23h-.08a19.91,19.91,0,0,1-.42,2.88l-.7,3.33H22.12l3.34-15.73H27.7l-.16,1.66h.08A3.83,3.83,0,0,1,30.72,323.35Zm-1.18,2.38a1.79,1.79,0,0,0-1.29.66,4.78,4.78,0,0,0-1,1.76,7.44,7.44,0,0,0-.38,2.42,2,2,0,0,0,.36,1.25,1.18,1.18,0,0,0,1,.47,1.68,1.68,0,0,0,1.25-.67,5,5,0,0,0,1-1.85,7.64,7.64,0,0,0,.37-2.32C30.82,326.3,30.39,325.73,29.54,325.73Z" transform="translate(-3.48 -6.47)" style="fill:#5d6466"/><path d="M39.06,334.67a4.33,4.33,0,0,1-3.18-1.11,4.12,4.12,0,0,1-1.14-3.11,8.32,8.32,0,0,1,.81-3.69,6,6,0,0,1,2.18-2.54,5.73,5.73,0,0,1,3.12-.87,4.11,4.11,0,0,1,2.69.79,2.67,2.67,0,0,1,1,2.19,3.11,3.11,0,0,1-1.63,2.81,9,9,0,0,1-4.66,1h-.5l0,.21v.19a1.77,1.77,0,0,0,1.95,1.92,5.7,5.7,0,0,0,1.54-.19,10.2,10.2,0,0,0,1.68-.65v2.22A8.4,8.4,0,0,1,39.06,334.67Zm1.6-9.2a2.26,2.26,0,0,0-1.62.78,3.76,3.76,0,0,0-1,1.9h.44a4.93,4.93,0,0,0,2.36-.47,1.44,1.44,0,0,0,.85-1.29C41.69,325.78,41.34,325.47,40.66,325.47Z" transform="translate(-3.48 -6.47)" style="fill:#5d6466"/><path d="M52.41,323.35a3.51,3.51,0,0,1,.94.1l-.65,2.84a2.74,2.74,0,0,0-1-.16,2.69,2.69,0,0,0-2,.89,5.24,5.24,0,0,0-1.22,2.57l-1,4.88H44.55l2.31-10.92h2.25l-.21,2H49A4.11,4.11,0,0,1,52.41,323.35Z" transform="translate(-3.48 -6.47)" style="fill:#5d6466"/><path d="M55.09,334.47H52.15l2.31-10.92H57.4ZM54.93,321a1.67,1.67,0,0,1,.46-1.28,1.86,1.86,0,0,1,1.32-.43,1.69,1.69,0,0,1,1.08.3,1,1,0,0,1,.37.87,1.8,1.8,0,0,1-.43,1.26,1.69,1.69,0,0,1-1.33.49C55.42,322.2,54.93,321.79,54.93,321Z" transform="translate(-3.48 -6.47)" style="fill:#5d6466"/><path d="M62.1,334.67a4.38,4.38,0,0,1-3.19-1.11,4.15,4.15,0,0,1-1.13-3.11,8.32,8.32,0,0,1,.81-3.69,5.94,5.94,0,0,1,2.18-2.54,5.72,5.72,0,0,1,3.11-.87,4.12,4.12,0,0,1,2.7.79,2.7,2.7,0,0,1,1,2.19,3.13,3.13,0,0,1-1.63,2.81,9,9,0,0,1-4.66,1h-.5l0,.21v.19a1.76,1.76,0,0,0,1.94,1.92,5.77,5.77,0,0,0,1.55-.19,10.2,10.2,0,0,0,1.68-.65v2.22A8.4,8.4,0,0,1,62.1,334.67Zm1.6-9.2a2.26,2.26,0,0,0-1.62.78,3.76,3.76,0,0,0-1,1.9h.44a4.93,4.93,0,0,0,2.36-.47,1.45,1.45,0,0,0,.84-1.29C64.72,325.78,64.38,325.47,63.7,325.47Z" transform="translate(-3.48 -6.47)" style="fill:#5d6466"/><path d="M76.77,334.47H73.83l1.33-6.38a4.85,4.85,0,0,0,.16-1.16q0-1.2-1-1.2a2,2,0,0,0-1.64,1.11A9.39,9.39,0,0,0,71.48,330l-1,4.52H67.59l2.31-10.92h2.25l-.21,2H72a4.11,4.11,0,0,1,3.47-2.22,2.66,2.66,0,0,1,2.08.81,3.38,3.38,0,0,1,.74,2.33,8.67,8.67,0,0,1-.23,1.76Z" transform="translate(-3.48 -6.47)" style="fill:#5d6466"/><path d="M83.43,334.67a4.09,4.09,0,0,1-3-1.05,4,4,0,0,1-1-3,9.51,9.51,0,0,1,.73-3.76,6,6,0,0,1,2-2.62,5.15,5.15,0,0,1,3-.92,7.13,7.13,0,0,1,3.2.7l-.9,2.24c-.35-.15-.7-.28-1-.39a3.66,3.66,0,0,0-1.15-.17,2.15,2.15,0,0,0-1.5.63,4.11,4.11,0,0,0-1,1.71,7.09,7.09,0,0,0-.38,2.34,2,2,0,0,0,.45,1.41,1.6,1.6,0,0,0,1.23.47,3.85,3.85,0,0,0,1.38-.23,11.08,11.08,0,0,0,1.31-.57v2.4A7,7,0,0,1,83.43,334.67Z" transform="translate(-3.48 -6.47)" style="fill:#5d6466"/><path d="M92.52,334.67a4.33,4.33,0,0,1-3.18-1.11,4.12,4.12,0,0,1-1.14-3.11,8.32,8.32,0,0,1,.81-3.69,6,6,0,0,1,2.18-2.54,5.73,5.73,0,0,1,3.12-.87,4.11,4.11,0,0,1,2.69.79,2.67,2.67,0,0,1,1,2.19,3.13,3.13,0,0,1-1.63,2.81,9,9,0,0,1-4.66,1h-.5l0,.21v.19a1.76,1.76,0,0,0,1.94,1.92,5.72,5.72,0,0,0,1.55-.19,10.2,10.2,0,0,0,1.68-.65v2.22A8.4,8.4,0,0,1,92.52,334.67Zm1.6-9.2a2.26,2.26,0,0,0-1.62.78,3.76,3.76,0,0,0-1,1.9h.44a4.93,4.93,0,0,0,2.36-.47,1.46,1.46,0,0,0,.85-1.29C95.15,325.78,94.8,325.47,94.12,325.47Z" transform="translate(-3.48 -6.47)" style="fill:#5d6466"/><path d="M106,334.67a2.73,2.73,0,0,1-2.26-1,4.61,4.61,0,0,1-.83-2.92,9.8,9.8,0,0,1,.7-3.69,6.81,6.81,0,0,1,1.85-2.71,3.82,3.82,0,0,1,2.51-1,3,3,0,0,1,1.63.41,2.7,2.7,0,0,1,1.07,1.19h.08l.56-1.4h2.26l-2.32,10.92H109l.14-1.42h0A3.89,3.89,0,0,1,106,334.67Zm1.15-2.38a1.83,1.83,0,0,0,1.3-.65,4.83,4.83,0,0,0,1-1.77,7.71,7.71,0,0,0,.38-2.54,1.76,1.76,0,0,0-.37-1.15,1.23,1.23,0,0,0-1-.45,1.68,1.68,0,0,0-1.27.7,5.08,5.08,0,0,0-1,1.86,7.63,7.63,0,0,0-.36,2.28,2.08,2.08,0,0,0,.33,1.29A1.07,1.07,0,0,0,107.14,332.29Z" transform="translate(-3.48 -6.47)" style="fill:#5d6466"/><path d="M129.64,334.47H126.3l-3.48-10.8h-.06l0,.31c-.2,1.41-.42,2.67-.64,3.77l-1.42,6.72H118l3-14.28h3.48l3.32,10.52h0c.08-.49.21-1.2.38-2.12s.76-3.72,1.76-8.4h2.68Z" transform="translate(-3.48 -6.47)" style="fill:#5d6466"/><path d="M136.93,334.67a4.37,4.37,0,0,1-3.18-1.11,4.15,4.15,0,0,1-1.13-3.11,8.46,8.46,0,0,1,.8-3.69,6,6,0,0,1,2.19-2.54,5.67,5.67,0,0,1,3.11-.87,4.16,4.16,0,0,1,2.7.79,2.69,2.69,0,0,1,1,2.19,3.11,3.11,0,0,1-1.63,2.81,9,9,0,0,1-4.66,1h-.49l0,.21v.19a1.92,1.92,0,0,0,.5,1.41,2,2,0,0,0,1.44.51,5.65,5.65,0,0,0,1.54-.19,9.56,9.56,0,0,0,1.68-.65v2.22A8.4,8.4,0,0,1,136.93,334.67Zm1.61-9.2a2.26,2.26,0,0,0-1.63.78,3.75,3.75,0,0,0-1,1.9h.44a5,5,0,0,0,2.36-.47,1.45,1.45,0,0,0,.84-1.29C139.56,325.78,139.22,325.47,138.54,325.47Z" transform="translate(-3.48 -6.47)" style="fill:#5d6466"/><path d="M150.42,326.07q-.6,1.74-1.2,3.12l-2.28,5.28h-3.16l-.5-10.92H146l0,4.84,0,1.63-.07,1.67h0c0-.13.08-.27.13-.41s.22-.58.5-1.33.43-1.14.45-1.16l2.26-5.24h3.2v5.24c0,.92,0,1.89-.1,2.9h.06l.27-.78q.72-2,.93-2.52l2.14-4.84h3l-5.18,10.92h-3.22l-.06-5.08c0-1,0-2.11.1-3.32Z" transform="translate(-3.48 -6.47)" style="fill:#5d6466"/><path d="M171.2,324.53a26.7,26.7,0,0,1-1.12,2.92l-3.16,7h-3.31l-.43-14.28H166L166,328c0,.33,0,.9,0,1.69s-.06,1.35-.1,1.69H166c.14-.41.36-1,.65-1.76s.49-1.23.59-1.42l3.6-8h2.64l.2,8.53c0,.95,0,1.83-.08,2.65h.05c.28-.84.71-2,1.28-3.4l3.23-7.78h3l-6.31,14.28h-3.38l-.22-7,0-1.36c0-.57,0-1.08,0-1.54Z" transform="translate(-3.48 -6.47)" style="fill:#5d6466"/><path d="M182.4,334.67a2.75,2.75,0,0,1-2.26-1,4.61,4.61,0,0,1-.82-2.92A9.8,9.8,0,0,1,180,327a6.81,6.81,0,0,1,1.85-2.71,3.82,3.82,0,0,1,2.51-1,3.06,3.06,0,0,1,1.63.41,2.7,2.7,0,0,1,1.07,1.19h.08l.56-1.4H190l-2.32,10.92h-2.24l.14-1.42h0A3.9,3.9,0,0,1,182.4,334.67Zm1.16-2.38a1.83,1.83,0,0,0,1.3-.65,4.83,4.83,0,0,0,1-1.77,7.71,7.71,0,0,0,.38-2.54,1.76,1.76,0,0,0-.37-1.15,1.23,1.23,0,0,0-1-.45,1.68,1.68,0,0,0-1.27.7,5.25,5.25,0,0,0-1,1.86,8,8,0,0,0-.35,2.28,2.15,2.15,0,0,0,.32,1.29A1.1,1.1,0,0,0,183.56,332.29Z" transform="translate(-3.48 -6.47)" style="fill:#5d6466"/><path d="M190.5,323.55h2.88l.55,5.06a26.13,26.13,0,0,1,.13,2.86h.06c.13-.33.28-.72.43-1.16a14.27,14.27,0,0,1,.64-1.5l2.54-5.26h3.19L194.28,336c-1.15,2.16-2.73,3.25-4.72,3.25a4.71,4.71,0,0,1-1.43-.19v-2.34a6.5,6.5,0,0,0,1.13.12,2.26,2.26,0,0,0,1.44-.47,4.33,4.33,0,0,0,1.15-1.45l.25-.48Z" transform="translate(-3.48 -6.47)" style="fill:#5d6466"/><path d="M208.46,332.29A4.79,4.79,0,0,0,210,332v2.2a6.06,6.06,0,0,1-2.6.52,3.17,3.17,0,0,1-2.15-.62,2.41,2.41,0,0,1-.69-1.9,5.75,5.75,0,0,1,.12-1.1l1.12-5.26h-1.48l.28-1.44,1.92-.82,1.28-2.3h1.9l-.48,2.32H212l-.48,2.24h-2.76l-1.12,5.26a2.68,2.68,0,0,0-.06.52C207.6,332.05,207.89,332.29,208.46,332.29Z" transform="translate(-3.48 -6.47)" style="fill:#5d6466"/><path d="M221.64,327.67a9.33,9.33,0,0,1-.68,3.66,5.56,5.56,0,0,1-2,2.46,5.45,5.45,0,0,1-3.09.88,3.94,3.94,0,0,1-4.18-4.2,9.23,9.23,0,0,1,.7-3.71,5.72,5.72,0,0,1,2-2.52,5.39,5.39,0,0,1,3.08-.89,4,4,0,0,1,3,1.15A4.39,4.39,0,0,1,221.64,327.67Zm-3,0c0-1.28-.46-1.92-1.39-1.92a1.8,1.8,0,0,0-1.32.6,4.31,4.31,0,0,0-.94,1.74,7.64,7.64,0,0,0-.37,2.38q0,1.8,1.47,1.8a1.8,1.8,0,0,0,1.31-.6,3.92,3.92,0,0,0,.92-1.67A7.86,7.86,0,0,0,218.68,327.67Z" transform="translate(-3.48 -6.47)" style="fill:#5d6466"/><path d="M235.32,330.25a3.94,3.94,0,0,1-1.45,3.23,6,6,0,0,1-3.91,1.19,6.23,6.23,0,0,1-3.48-.88v-2.68a7.29,7.29,0,0,0,3.49,1.06,3,3,0,0,0,1.71-.42,1.32,1.32,0,0,0,.62-1.14,1.83,1.83,0,0,0-.13-.73,2.25,2.25,0,0,0-.38-.6,10.54,10.54,0,0,0-1.21-1,6.4,6.4,0,0,1-1.89-1.92,4,4,0,0,1-.55-2,4.25,4.25,0,0,1,.6-2.25,4.12,4.12,0,0,1,1.73-1.54A5.68,5.68,0,0,1,233,320a8,8,0,0,1,3.88,1l-1.07,2.28a6.61,6.61,0,0,0-2.81-.72,2,2,0,0,0-1.33.44,1.45,1.45,0,0,0-.51,1.16,1.69,1.69,0,0,0,.32,1,5.68,5.68,0,0,0,1.44,1.18,5.72,5.72,0,0,1,1.77,1.72A4.09,4.09,0,0,1,235.32,330.25Z" transform="translate(-3.48 -6.47)" style="fill:#5d6466"/><path d="M245.39,334.47h-2.93l1.33-6.38a4.85,4.85,0,0,0,.16-1.16c0-.8-.35-1.2-1.06-1.2a2,2,0,0,0-1.63,1.11,9.39,9.39,0,0,0-1.15,3.11l-1,4.52h-2.93l3.22-15.19h2.94c-.26,1.17-.45,2.08-.59,2.71s-.42,1.64-.84,3H241a5.12,5.12,0,0,1,1.35-1.21,3.22,3.22,0,0,1,1.72-.45,2.68,2.68,0,0,1,2.08.81,3.38,3.38,0,0,1,.74,2.33,8.67,8.67,0,0,1-.23,1.76Z" transform="translate(-3.48 -6.47)" style="fill:#5d6466"/><path d="M257.93,327.67a9.33,9.33,0,0,1-.68,3.66,5.56,5.56,0,0,1-2,2.46,5.45,5.45,0,0,1-3.09.88,3.94,3.94,0,0,1-4.18-4.2,9.23,9.23,0,0,1,.7-3.71,5.72,5.72,0,0,1,2-2.52,5.39,5.39,0,0,1,3.08-.89,4,4,0,0,1,3,1.15A4.39,4.39,0,0,1,257.93,327.67Zm-3,0c0-1.28-.46-1.92-1.39-1.92a1.8,1.8,0,0,0-1.32.6,4.31,4.31,0,0,0-.94,1.74,7.64,7.64,0,0,0-.37,2.38q0,1.8,1.47,1.8a1.8,1.8,0,0,0,1.31-.6,3.92,3.92,0,0,0,.92-1.67A7.86,7.86,0,0,0,255,327.67Z" transform="translate(-3.48 -6.47)" style="fill:#5d6466"/><path d="M265.93,323.35a2.71,2.71,0,0,1,2.25,1,4.62,4.62,0,0,1,.83,2.93,9.77,9.77,0,0,1-.67,3.59,7,7,0,0,1-1.83,2.74,3.85,3.85,0,0,1-2.56,1,2.54,2.54,0,0,1-1.4-.37,3.33,3.33,0,0,1-1.08-1.23h-.08A19.91,19.91,0,0,1,261,336l-.7,3.33h-2.94l3.34-15.73h2.25l-.17,1.66h.09A3.82,3.82,0,0,1,265.93,323.35Zm-1.18,2.38a1.77,1.77,0,0,0-1.28.66,4.65,4.65,0,0,0-1,1.76,7.44,7.44,0,0,0-.38,2.42,2,2,0,0,0,.37,1.25,1.16,1.16,0,0,0,1,.47,1.68,1.68,0,0,0,1.25-.67,5,5,0,0,0,1-1.85,7.64,7.64,0,0,0,.37-2.32C266,326.3,265.6,325.73,264.75,325.73Z" transform="translate(-3.48 -6.47)" style="fill:#5d6466"/></g></g></svg>