<?xml version="1.0" encoding="utf-8"?>
<!-- Generator: Adobe Illustrator 26.0.0, SVG Export Plug-In . SVG Version: 6.00 Build 0)  -->
<svg version="1.1" id="Calque_1" xmlns="http://www.w3.org/2000/svg" xmlns:xlink="http://www.w3.org/1999/xlink" x="0px" y="0px"
	 viewBox="0 0 313 302" style="enable-background:new 0 0 313 302;" xml:space="preserve">
<style type="text/css">
	.st0{opacity:0.3;fill:url(#SVGID_1_);enable-background:new    ;}
	.st1{fill:#DB3535;}
	.st2{fill:#B3B3B3;}
	.st3{fill:#003159;}
	.st4{fill:#DD3131;}
	.st5{fill:#F7F7F7;}
	.st6{fill:#D13737;}
</style>
<g id="OBJECTS">
	
		<radialGradient id="SVGID_1_" cx="161" cy="-133.0732" r="88.3243" gradientTransform="matrix(1 0 0 -0.0897 0 237.8757)" gradientUnits="userSpaceOnUse">
		<stop  offset="5.800000e-07" style="stop-color:#606060"/>
		<stop  offset="0.9997" style="stop-color:#EAEDEE;stop-opacity:0"/>
	</radialGradient>
	<ellipse class="st0" cx="161" cy="249.81" rx="124.76" ry="10.99"/>
	<g>
		<g>
			<path class="st1" d="M242.8,175.11h-6.44l9.56-103.96c0.39-4.24,3.52-7.72,7.69-8.56l13.09-2.63L242.8,175.11z"/>
			<path class="st2" d="M226.19,67.27l6.87,107.83l6.59-105.25C233.99,69.78,229.44,68.56,226.19,67.27z"/>
			<path class="st2" d="M243.25,69.69l-8.88,105.42h4.19l18.27-111.1C253.98,66.25,249.37,68.98,243.25,69.69z"/>
			<ellipse class="st3" cx="125.67" cy="214.03" rx="16.19" ry="16.19"/>
			<circle class="st3" cx="197.73" cy="214.05" r="16.19"/>
			<path class="st3" d="M251.54,179.76H106.47c-14.66,0-27.07-10.97-28.87-25.52L64.01,44.28C61.31,21.89,42.27,5,19.72,5
				c-4.3,0-7.78,3.48-7.78,7.78s3.48,7.78,7.78,7.78c14.69,0,27.09,11,28.85,25.6l13.59,109.99c2.76,22.33,21.81,39.17,44.31,39.17
				h5.29c3.89-2.9,8.7-4.64,13.92-4.64s10.02,1.74,13.92,4.64h44.22c3.89-2.9,8.7-4.64,13.92-4.64s10.02,1.74,13.92,4.64h39.9
				c4.3,0,7.78-3.48,7.78-7.78S255.83,179.76,251.54,179.76z"/>
		</g>
		<path class="st4" d="M221.98,77.98c-1.17-10.26-9.86-18.01-20.18-18.01H70.84l10.45,91.6c1.53,13.41,12.88,23.54,26.38,23.54
			l-19.26-15.14l64.3-41.35l-23.82,47.81c-1.99,3.99,0.91,8.67,5.37,8.67h98.8L221.98,77.98z"/>
		<path class="st5" d="M139.36,105.12c-1.55,2.66-4.96,3.57-7.62,2.02c-2.66-1.55-3.56-4.96-2.02-7.62
			c1.08-1.86,3.07-2.84,5.09-2.74c-1.35,0.13-2.63,0.88-3.36,2.15c-1.21,2.09-0.5,4.77,1.59,5.98c2.09,1.21,4.77,0.5,5.98-1.59
			c0.74-1.27,0.76-2.76,0.19-4.01C140.3,101.01,140.44,103.24,139.36,105.12z"/>
		<g>
			<path class="st3" d="M180.41,58.23l4.13-0.28c-3.35-5.52-9.81-11.56-18.91-8.77c-6.3,1.93-13.65,11.47-21.84,28.34
				c-5.97,12.31-10.28,24.25-10.32,24.37c-0.34,0.93,0.15,1.96,1.08,2.3c0.2,0.07,0.41,0.11,0.61,0.11c0.74,0,1.43-0.46,1.69-1.19
				c4.65-12.93,19.06-47.2,29.83-50.5C173.29,50.59,177.81,54.61,180.41,58.23z"/>
		</g>
		<path class="st3" d="M153.18,110.95l-8.58-20.01c-0.87-2.03-2.96-3.25-5.16-3L117.8,90.4c-2.69,0.31-5.08,1.87-6.44,4.21
			l-6.41,11.03L81.56,145.9c-2.38,4.09-0.99,9.33,3.1,11.71l26.53,15.42c4.09,2.38,9.33,0.99,11.71-3.1l29.8-51.29
			C154.08,116.28,154.25,113.43,153.18,110.95z M139.36,105.12c-1.55,2.66-4.96,3.57-7.62,2.02c-2.66-1.55-3.56-4.96-2.02-7.62
			c1.55-2.66,4.96-3.57,7.62-2.02C140,99.04,140.9,102.45,139.36,105.12z"/>
	</g>
</g>
<g id="TEXTS">
</g>
<g>
	<path class="st3" d="M60.5,286.11c0,5.57-4.6,8.83-13.25,8.83H29.86v-32.2h16.47c8.46,0,12.61,3.45,12.61,8.42
		c0,3.08-1.56,5.57-4.32,6.99C58.24,279.44,60.5,282.2,60.5,286.11z M38.87,269.32v6.21h6.26c3.04,0,4.6-1.06,4.6-3.13
		c0-2.02-1.56-3.08-4.6-3.08H38.87z M51.3,285.1c0-2.21-1.66-3.27-4.78-3.27h-7.64v6.53h7.64C49.64,288.36,51.3,287.31,51.3,285.1z"
		/>
	<path class="st3" d="M63.34,282.43c0-7.5,5.93-12.83,14.08-12.83c8.23,0,14.08,5.34,14.08,12.83c0,7.54-5.84,12.93-14.08,12.93
		C69.28,295.36,63.34,289.98,63.34,282.43z M82.67,282.43c0-3.77-2.25-5.89-5.24-5.89c-2.94,0-5.24,2.12-5.24,5.89
		c0,3.82,2.3,5.98,5.24,5.98C80.41,288.41,82.67,286.25,82.67,282.43z"/>
	<path class="st3" d="M94.07,282.43c0-7.5,5.93-12.83,14.08-12.83c8.23,0,14.08,5.34,14.08,12.83c0,7.54-5.84,12.93-14.08,12.93
		C100.01,295.36,94.07,289.98,94.07,282.43z M113.39,282.43c0-3.77-2.25-5.89-5.24-5.89c-2.94,0-5.24,2.12-5.24,5.89
		c0,3.82,2.3,5.98,5.24,5.98C111.14,288.41,113.39,286.25,113.39,282.43z"/>
	<path class="st3" d="M137.68,286.2l-2.58,2.62v6.12h-8.74V260.8h8.74v17.9l8.92-8.69h10.35l-10.35,10.67l11.23,14.26h-10.58
		L137.68,286.2z"/>
	<path class="st6" d="M156.17,292.05l2.99-6.72c2.85,1.89,6.9,3.17,10.63,3.17c3.77,0,5.25-1.06,5.25-2.62
		c0-5.11-18.31-1.38-18.31-13.34c0-5.75,4.69-10.44,14.26-10.44c4.19,0,8.51,0.97,11.69,2.81l-2.81,6.76
		c-3.08-1.66-6.12-2.48-8.92-2.48c-3.82,0-5.2,1.29-5.2,2.9c0,4.92,18.26,1.24,18.26,13.11c0,5.61-4.69,10.4-14.26,10.4
		C164.45,295.59,159.21,294.16,156.17,292.05z"/>
	<path class="st6" d="M205.07,293.93c-1.52,0.97-3.77,1.43-6.07,1.43c-6.39,0-10.12-3.13-10.12-9.52v-8.37h-3.63v-6.53h3.63v-6.49
		h8.74v6.49h5.7v6.53h-5.7v8.28c0,1.84,1.06,2.85,2.62,2.85c0.97,0,1.93-0.28,2.67-0.78L205.07,293.93z"/>
	<path class="st6" d="M206.22,282.43c0-7.5,5.93-12.83,14.08-12.83c8.24,0,14.08,5.34,14.08,12.83c0,7.54-5.84,12.93-14.08,12.93
		C212.15,295.36,206.22,289.98,206.22,282.43z M225.54,282.43c0-3.77-2.25-5.89-5.25-5.89c-2.94,0-5.24,2.12-5.24,5.89
		c0,3.82,2.3,5.98,5.24,5.98C223.29,288.41,225.54,286.25,225.54,282.43z"/>
	<path class="st6" d="M255.21,269.6v7.87c-0.78-0.09-1.33-0.14-1.98-0.14c-3.54,0-5.98,1.79-5.98,6.17v11.46h-8.74v-24.93h8.33v2.99
		C248.63,270.74,251.53,269.6,255.21,269.6z"/>
	<path class="st6" d="M284.01,284.68h-18.13c0.74,2.53,2.9,4,6.12,4c2.44,0,4.05-0.69,5.75-2.16l4.6,4.78
		c-2.39,2.67-5.89,4.05-10.63,4.05c-8.88,0-14.63-5.47-14.63-12.93c0-7.5,5.84-12.83,13.71-12.83c7.36,0,13.34,4.69,13.34,12.93
		C284.14,283.17,284.05,283.99,284.01,284.68z M265.74,280.08h10.21c-0.46-2.62-2.39-4.28-5.11-4.28
		C268.13,275.81,266.25,277.46,265.74,280.08z"/>
</g>
</svg>
