<?xml version="1.0" encoding="utf-8"?>
<!-- Generator: Adobe Illustrator 26.0.0, SVG Export Plug-In . SVG Version: 6.00 Build 0)  -->
<svg version="1.1" id="fila" xmlns="http://www.w3.org/2000/svg" xmlns:xlink="http://www.w3.org/1999/xlink" x="0px" y="0px"
	 viewBox="0 0 2500 845" style="enable-background:new 0 0 2500 845;" xml:space="preserve">
<style type="text/css">
	.st0{fill:#CC393C;}
	.st1{fill:#3D3D6A;}
</style>
<path class="st0" d="M912.3,226.4c30.4,0,55.1,24.7,55.1,55.1c0,30.4-24.7,55.1-55.1,55.1H660.2c-30.4,0-55.1-24.7-55.1-55.1
	c0-30.4,24.7-55.1,55.1-55.1H912.3L912.3,226.4z"/>
<path class="st1" d="M887,370.8c30.4,0,55.1,24.7,55.1,55.1S917.4,481,887,481H743.5c-12.2,0-22.3,9.7-22.7,21.8v71.8
	c0,30.4-24.7,55.1-55.1,55.1c-30.4,0-55.1-24.7-55.1-55.1V452.5c0-45.1,36.6-81.7,81.6-81.7L887,370.8L887,370.8z M992.4,269.9
	c0-30.4,24.7-55.1,55.1-55.1c30.4,0,55.1,24.7,55.1,55.1v305.2c0,30.4-24.7,55.1-55.1,55.1c-30.4,0-55.1-24.7-55.1-55.1V269.9
	L992.4,269.9z M1670.8,520.9l22.1-0.1c4.5,0,8.2-3.7,8.2-8.2c0-1.1-0.2-2.1-0.6-3.1l-82.4-138.4l-128.7,222.8
	c-9.9,17.2-27.8,27.1-46.3,27.5c-0.6,0.1-1.1,0.1-1.7,0.1h-209.4c-45.1,0-81.7-36.6-81.7-81.7v-270c0-30.4,24.7-55.1,55.1-55.1
	c30.4,0,55.1,24.7,55.1,55.1v218.7c0,12.2,9.7,22.3,21.8,22.7h117.1c3-0.9,12.2-4.1,15-8.4l147.1-254.7
	c11.2-19.2,31.9-32.1,55.7-32.1c23.8,0,44.6,12.9,55.7,32.1L1816.6,489c11.1,14.4,17,32,17,50.2c0,45.5-36.9,82.4-82.4,82.4h-167.1
	c-27.8,0-50.3-22.5-50.3-50.3c0-27.8,22.5-50.3,50.3-50.3H1670.8L1670.8,520.9z"/>
</svg>
